<?xml version="1.0" standalone="no"?>
<!DOCTYPE svg PUBLIC "-//W3C//DTD SVG 20010904//EN"
 "http://www.w3.org/TR/2001/REC-SVG-20010904/DTD/svg10.dtd">
<svg version="1.0" xmlns="http://www.w3.org/2000/svg"
 width="977.000000pt" height="537.000000pt" viewBox="0 0 977.000000 537.000000"
 preserveAspectRatio="xMidYMid meet">

<g transform="translate(0.000000,537.000000) scale(0.100000,-0.100000)"
fill="#000000" stroke="none">
<path d="M4528 4380 c-68 -12 -173 -48 -243 -83 -214 -106 -359 -280 -441
-527 -26 -78 -28 -97 -28 -240 0 -143 2 -162 28 -240 99 -299 287 -487 586
-586 78 -26 97 -28 240 -28 143 0 162 2 240 28 299 99 487 287 586 586 26 78
28 97 28 240 0 143 -2 162 -28 240 -99 300 -290 490 -586 585 -69 22 -108 28
-210 30 -69 2 -146 0 -172 -5z m77 -237 c26 -76 51 -142 55 -146 4 -5 29 55
55 133 26 78 53 144 61 147 8 3 36 0 64 -7 l50 -12 -2 -711 -3 -712 -50 -11
c-27 -7 -60 -13 -72 -13 l-23 -1 -1 473 -1 472 -37 -110 -37 -109 -27 74 c-15
41 -33 93 -41 115 -13 36 -15 -12 -15 -437 -1 -391 -3 -478 -14 -478 -8 0 -39
5 -70 11 l-57 12 0 713 0 713 33 10 c81 23 79 25 132 -126z m-255 -133 l0
-230 -70 0 -70 0 0 88 -1 87 -25 -30 c-54 -65 -103 -172 -128 -277 l-6 -28
150 0 150 0 0 -386 0 -386 -27 17 c-166 106 -271 214 -337 346 l-47 93 48 17
c99 33 88 37 127 -43 20 -40 49 -89 66 -108 l29 -35 1 168 0 167 -155 0 -155
0 0 44 c0 214 84 421 226 560 46 45 207 166 221 166 2 0 3 -103 3 -230z m709
187 c68 -41 182 -145 233 -214 38 -52 98 -167 98 -188 0 -10 -128 -61 -134
-54 -2 2 -15 27 -29 54 l-26 50 -1 -441 0 -440 -27 -26 c-16 -14 -48 -40 -73
-57 l-45 -32 -5 588 -5 588 -37 24 -38 24 0 85 c0 96 -4 94 89 39z"/>
<path d="M4696 2260 c-35 -11 -65 -38 -78 -70 -5 -14 -28 -113 -50 -220 -37
-180 -40 -211 -45 -402 l-5 -208 90 0 90 0 5 223 c4 175 10 253 30 370 14 82
28 152 32 155 13 13 22 -22 43 -161 30 -195 41 -320 42 -464 l0 -123 90 0 90
0 0 138 c0 172 -10 259 -56 495 -40 207 -56 244 -114 264 -40 14 -122 15 -164
3z"/>
<path d="M3365 2255 c-5 -2 -22 -6 -37 -9 -38 -8 -86 -52 -105 -95 -9 -22 -15
-65 -16 -112 0 -102 23 -149 121 -252 96 -100 116 -135 116 -206 0 -79 -18
-91 -145 -91 l-99 0 0 -65 0 -65 126 0 c149 0 196 12 245 61 45 45 64 115 55
200 -8 84 -39 140 -126 232 -105 112 -110 121 -110 189 0 77 16 88 127 88 l83
0 0 65 0 65 -112 -1 c-62 0 -117 -2 -123 -4z"/>
<path d="M3730 1810 l0 -450 90 0 90 0 0 380 c0 244 4 380 10 380 5 0 35 -22
65 -50 30 -27 64 -50 76 -50 11 0 41 20 67 43 88 82 82 107 82 -323 l0 -380
95 0 95 0 0 450 0 450 -125 0 -125 0 -39 -35 c-21 -19 -44 -35 -51 -35 -7 0
-30 16 -51 35 l-39 35 -120 0 -120 0 0 -450z"/>
<path d="M5130 2195 l0 -65 84 0 c111 0 132 -9 146 -59 10 -36 8 -59 -7 -114
-2 -10 -34 -52 -69 -93 -35 -42 -67 -87 -70 -101 -15 -57 3 -110 86 -257 l82
-146 105 0 104 0 -31 56 c-18 30 -63 108 -101 172 -38 64 -69 126 -69 138 0
11 25 54 56 95 93 121 116 196 95 301 -14 65 -54 112 -109 128 -21 5 -97 10
-169 10 l-133 0 0 -65z"/>
<path d="M5630 2195 l0 -65 85 0 85 0 0 -385 0 -385 90 0 90 0 0 385 0 385 80
0 80 0 0 65 0 65 -255 0 -255 0 0 -65z"/>
<path d="M3807 1213 c-16 -15 -5 -76 19 -112 33 -50 29 -85 -8 -89 -32 -4 -38
-22 -7 -22 62 0 79 59 34 120 -34 46 -33 85 3 98 l27 10 -31 1 c-17 1 -34 -2
-37 -6z"/>
<path d="M4210 1201 c-5 -11 -10 -54 -10 -96 0 -92 10 -115 50 -115 19 0 33 7
40 19 14 28 13 184 -2 199 -19 19 -66 15 -78 -7z m59 -5 c8 -9 11 -45 9 -98
-3 -81 -4 -83 -28 -83 -24 0 -25 2 -28 83 -3 78 6 112 28 112 4 0 13 -6 19
-14z"/>
<path d="M4650 1105 l0 -115 45 0 c25 0 45 5 45 10 0 6 -16 10 -35 10 l-35 0
0 105 c0 63 -4 105 -10 105 -6 0 -10 -45 -10 -115z"/>
<path d="M5020 1187 c0 -30 12 -115 25 -174 6 -28 41 -31 49 -5 23 79 33 212
16 212 -5 0 -10 -19 -10 -42 0 -54 -20 -168 -30 -168 -8 0 -30 123 -30 174 0
20 -4 36 -10 36 -5 0 -10 -15 -10 -33z"/>
<path d="M5470 1105 l0 -115 40 0 c22 0 40 5 40 10 0 6 -16 10 -35 10 l-35 0
0 60 c0 57 1 60 25 60 14 0 25 5 25 10 0 6 -12 10 -26 10 -22 0 -25 4 -22 27
2 22 10 29 33 34 29 6 29 7 -7 8 l-38 1 0 -115z"/>
</g>
</svg>
